PathFileType	4	(X/Y/Z)	/Users/niels/Desktop/University/Third Semester/Perception and Action/Exam/Gymnastics Motion Tracking/Code for Gym Tracking/Analyzed Data/Webcam_Backflip/id6_4_pure_Sports2D/id6_4_pure_Sports2D_px_person00.trc
DataRate	CameraRate	NumFrames	NumMarkers	Units	OrigDataRate	OrigDataStartFrame	OrigNumFrames
29.8125	29.8125	11	22	m	29.8125	80	160
Frame#	Time	Hip			RHip			RKnee			RAnkle			RBigToe			RSmallToe			RHeel			LHip			LKnee			LAnkle			LBigToe			LSmallToe			LHeel			Neck			Head			Nose			RShoulder			RElbow			RWrist			LShoulder			LElbow			LWrist		
		X1	Y1	Z1	X2	Y2	Z2	X3	Y3	Z3	X4	Y4	Z4	X5	Y5	Z5	X6	Y6	Z6	X7	Y7	Z7	X8	Y8	Z8	X9	Y9	Z9	X10	Y10	Z10	X11	Y11	Z11	X12	Y12	Z12	X13	Y13	Z13	X14	Y14	Z14	X15	Y15	Z15	X16	Y16	Z16	X17	Y17	Z17	X18	Y18	Z18	X19	Y19	Z19	X20	Y20	Z20	X21	Y21	Z21	X22	Y22	Z22
80	2.683438155136268	0.9097190183256175	-0.5865841486223201	0.0	0.9084324067964755	-0.5853984620630078	0.0	0.9183307372001256	-0.6846520912888967	0.0	0.9021920633197318	-0.7835164784469641	0.0	0.9267039575246813	-0.7976932527773398	0.0	0.9178297865386875	-0.7990132782132496	0.0	0.8949950790575959	-0.7956430479704678	0.0	0.9108801931713499	-0.5842770342491805	0.0	0.9164027477544486	-0.6846947185854521	0.0	0.9005944869826591	-0.7818780131468606	0.0	0.931230406658796	-0.7959605148442358	0.0	0.9239198237925937	-0.7934332982647055	0.0	0.8878209930471352	-0.7912516554871785	0.0	0.9148863115708377	-0.44783673736210516	0.0	0.9182574058747959	-0.3873984608670678	0.0	0.9418286556863297	-0.41582420368844775	0.0	0.9085146344616111	-0.4702240427189067	0.0	0.9041449135267963	-0.5396227831283475	0.0	0.9230044811379562	-0.5981928499425636	0.0	0.9136057932458863	-0.46796728681714717	0.0	0.9090781251041288	-0.5349192501982131	0.0	0.9246427239966478	-0.5921813209702509	0.0
81	2.716981132075471	0.9097825005076846	-0.5983489237329711	0.0	0.9083654089992497	-0.5973288815884881	0.0	0.9187637279980102	-0.6959942721690842	0.0	0.9021801363385371	-0.7939537731301529	0.0	0.9246113604119139	-0.8064775034108215	0.0	0.9166240859546283	-0.8072946223600201	0.0	0.8953804050666587	-0.8049424689797224	0.0	0.9109156781211425	-0.5961031793439439	0.0	0.9166172126618328	-0.696004153521222	0.0	0.9003426408403579	-0.7925834117188433	0.0	0.9290957109858081	-0.8050072953449575	0.0	0.9217377085112617	-0.8023281964129524	0.0	0.8877226789009492	-0.8008332706403528	0.0	0.9163122680169704	-0.45944762494232827	0.0	0.9200286272899768	-0.3994740739016018	0.0	0.9437059483468394	-0.427839842670771	0.0	0.9094828262791579	-0.48209967359531725	0.0	0.907436267097346	-0.5518099893773263	0.0	0.9285439926769681	-0.6096681454717017	0.0	0.9148264705016521	-0.4797172450547926	0.0	0.9105808893501597	-0.54706659682471	0.0	0.9276363345676931	-0.6039983454255761	0.0
82	2.7505241090146746	0.9098002084972339	-0.6081660375727334	0.0	0.9085056617788996	-0.6072054770773639	0.0	0.9191014442289226	-0.7055178077816072	0.0	0.9021828325280322	-0.8024702275925821	0.0	0.9231539077720119	-0.8138234851071002	0.0	0.9159344397512307	-0.8142580787278693	0.0	0.8956354202231037	-0.8126525368355388	0.0	0.9106334149960693	-0.6058660283996778	0.0	0.9168170761315774	-0.7054674524453362	0.0	0.9001440009158592	-0.8011709245417702	0.0	0.9274335234105898	-0.8124621847414741	0.0	0.9199661712095184	-0.8095366727345269	0.0	0.887598114416275	-0.8087061275143312	0.0	0.9175512312630598	-0.46933902062248745	0.0	0.9219338894962037	-0.40967680449166555	0.0	0.9452323873259977	-0.4380915115646683	0.0	0.9105467803051981	-0.49225928983133216	0.0	0.9112456122613297	-0.5627054102997381	0.0	0.9336162385095491	-0.6198885161666385	0.0	0.9156219864826542	-0.48972665861986686	0.0	0.9122027877291233	-0.5576057448418139	0.0	0.9303707241030966	-0.6146594962717766	0.0
83	2.784067085953878	0.9099281363146521	-0.6149139674334648	0.0	0.9088660686225458	-0.6138679359804584	0.0	0.9193567911740463	-0.7120706692490683	0.0	0.9021668270296819	-0.8081846849295811	0.0	0.922475036106837	-0.8189708871367237	0.0	0.9157813514832657	-0.8191735079994072	0.0	0.8957210048546155	-0.8179641435031829	0.0	0.9103751305784105	-0.6124191261327783	0.0	0.917083106203021	-0.7119294656228697	0.0	0.9000134801578756	-0.8067768934871947	0.0	0.9264909205193923	-0.8175505366903881	0.0	0.9189242111356605	-0.8143819015698203	0.0	0.8874913621854493	-0.814069290955297	0.0	0.9185972119030352	-0.4763259239577269	0.0	0.923847285450364	-0.4168618974115105	0.0	0.9464767550369829	-0.4453641488313626	0.0	0.9116698530543839	-0.4995381180809989	0.0	0.9150234945709688	-0.5709201458922593	0.0	0.9378350885985829	-0.6274854807989025	0.0	0.9161891947000896	-0.4967820138954875	0.0	0.9138059778646364	-0.5652203124774192	0.0	0.9327597057007806	-0.622633735987021	0.0
84	2.817610062893081	0.9102972852996547	-0.6177433892829722	0.0	0.9094060841674892	-0.6165244552727042	0.0	0.9196167207266546	-0.7148216147053739	0.0	0.9021017039456626	-0.8104340598579506	0.0	0.9226415902930462	-0.8213074011239005	0.0	0.9161942615287042	-0.821428794757246	0.0	0.8956014670819507	-0.8202508520791862	0.0	0.9104794098685467	-0.6149868704992679	0.0	0.9175067551409692	-0.7145674106041058	0.0	0.8999276207490593	-0.8088407528077738	0.0	0.9264028930898505	-0.8197406401286138	0.0	0.9187638848047487	-0.8163930397762638	0.0	0.8873781302223114	-0.8163833476088147	0.0	0.9195381526106996	-0.4795316599532629	0.0	0.9256016840037787	-0.4202493500707929	0.0	0.9475714830145489	-0.44879623029535776	0.0	0.9127955171554407	-0.50304694421775	0.0	0.9182541072059461	-0.5752508307665098	0.0	0.9409446691141392	-0.6313557488904739	0.0	0.9169279176121277	-0.5000029614258226	0.0	0.9153386779082953	-0.5689134322301918	0.0	0.9347494558181226	-0.626721072433083	0.0
85	2.8511530398322846	0.9110025995577088	-0.6162669539396314	0.0	0.9100815843099679	-0.6148798283077124	0.0	0.9200221761887917	-0.7134633173452699	0.0	0.9020301789638681	-0.8089016251365436	0.0	0.9237152425537191	-0.8204559477546012	0.0	0.9172475657424556	-0.8206130106082198	0.0	0.8953097770050671	-0.8191595119990022	0.0	0.9111761299213733	-0.6132987620967801	0.0	0.9181731415536653	-0.7130950878444393	0.0	0.8998747595812359	-0.8071600718712535	0.0	0.9272408526919199	-0.8187509162944123	0.0	0.9195044448275522	-0.8152960552332624	0.0	0.8872203465151169	-0.8153800917889781	0.0	0.9205004514513311	-0.47853411619021163	0.0	0.9270789733509018	-0.4195241181321895	0.0	0.9486520808155947	-0.4480476735041266	0.0	0.913846007303857	-0.5023107596388138	0.0	0.9206426918296569	-0.5749702194790752	0.0	0.9428636961247898	-0.6308739577378708	0.0	0.918262774836052	-0.4990126500988647	0.0	0.9168764483969077	-0.5682100978136985	0.0	0.9363453261241197	-0.6263320584595096	0.0
86	2.884696016771488	0.9120949231208328	-0.6106753669544845	0.0	0.9108924493660996	-0.6092034535483055	0.0	0.9207268459247926	-0.7082399540138489	0.0	0.9020705097765739	-0.8037263295521402	0.0	0.9256994442820742	-0.8164082096439678	0.0	0.9189762674367024	-0.8166665410025229	0.0	0.8949737038184513	-0.8146816104455897	0.0	0.9125261309191814	-0.6076309784391208	0.0	0.9191579968686496	-0.7077659689465463	0.0	0.8999130492917642	-0.8019104852422199	0.0	0.9289956816374775	-0.8145888244340016	0.0	0.9211051679882767	-0.8110897970388057	0.0	0.8870711680990624	-0.8110574104889154	0.0	0.9215203982787276	-0.47345311400317697	0.0	0.9283356791435315	-0.4148159067332274	0.0	0.9498021581884303	-0.4433309736171091	0.0	0.9147360965378291	-0.4973898822165202	0.0	0.9221732384492409	-0.5700273760579703	0.0	0.9437148464242887	-0.6260071142938819	0.0	0.9202569609154349	-0.49396336432634624	0.0	0.9185463825098173	-0.5631719718488832	0.0	0.9376252334184889	-0.6215418819471745	0.0
87	2.918238993710691	0.9135634350236214	-0.6017186521409763	0.0	0.9118752155935023	-0.6002762636356054	0.0	0.9218351724604745	-0.6998607755237708	0.0	0.902345780304213	-0.7955015897968429	0.0	0.9284858637317459	-0.8096285157384581	0.0	0.9213102839406347	-0.8100260110929693	0.0	0.8947701530484318	-0.8072280527817705	0.0	0.9144327035358598	-0.5987323594093928	0.0	0.9205131969683746	-0.6992776796517266	0.0	0.9001736640786606	-0.7936530445429473	0.0	0.9315648486409537	-0.8076633906344163	0.0	0.923517807761439	-0.8041657676513164	0.0	0.887072488187784	-0.8037527185327077	0.0	0.9225092122797586	-0.4649499394815206	0.0	0.9295752585856295	-0.40668084574208063	0.0	0.9510288881727641	-0.43533885004779044	0.0	0.9154070856764882	-0.4889046595483829	0.0	0.9230433373734063	-0.5610819484733195	0.0	0.9438520716266344	-0.6173377797862097	0.0	0.9225385912484775	-0.4854977263619697	0.0	0.9204270470067812	-0.5543823699431902	0.0	0.938757312913946	-0.6130027977194535	0.0
88	2.9517819706498947	0.9153084323220939	-0.5905600332710353	0.0	0.9130371570736457	-0.5892278417246815	0.0	0.9233655641249614	-0.6893673507444841	0.0	0.9029163759572453	-0.7851647172871493	0.0	0.9318213598994121	-0.8009842451486126	0.0	0.9240236588043653	-0.8015678115668585	0.0	0.8948469127492054	-0.7976277603753847	0.0	0.9166890123967582	-0.5876907620088409	0.0	0.9222416270170638	-0.6886743809414101	0.0	0.9007921747407601	-0.7832970230072358	0.0	0.9347019231014786	-0.7987980777204384	0.0	0.9265991918222724	-0.7953308118158663	0.0	0.887358554951458	-0.7941746317480222	0.0	0.9233627392753287	-0.4541119470050187	0.0	0.9309787207075171	-0.39608762405541026	0.0	0.9522904105676158	-0.42511206444539784	0.0	0.9158578218383865	-0.4779300464940843	0.0	0.9235341321639525	-0.5493881547126472	0.0	0.9438156640671108	-0.6059942189764564	0.0	0.9246596602211151	-0.4746779129871671	0.0	0.9225122275988905	-0.5429362108628676	0.0	0.9399888175417677	-0.6018217412984995	0.0
89	2.985324947589098	0.9171358575181863	-0.5785520786027912	0.0	0.9143093389305594	-0.5773427700011159	0.0	0.9252720147300626	-0.6779718842934827	0.0	0.9037872823453503	-0.7738697896625842	0.0	0.935321680619782	-0.7915418313407057	0.0	0.9267507603225649	-0.7923633042378445	0.0	0.8952930498351045	-0.7869887221915425	0.0	0.9190390413484593	-0.575784521496743	0.0	0.924294674199911	-0.6771948372643725	0.0	0.9018485073604211	-0.7719898064479094	0.0	0.9380138049050244	-0.7890651451035897	0.0	0.9300263687364033	-0.7856697801053466	0.0	0.8880148627285471	-0.7833260582204635	0.0	0.9240697646510817	-0.4422661111191474	0.0	0.932593251974691	-0.3843174326229042	0.0	0.9535439763191549	-0.4138809452934183	0.0	0.9161592535026758	-0.4657977698180409	0.0	0.9238731727203968	-0.5365488732574039	0.0	0.94411216084132	-0.5934542880368173	0.0	0.9264092246996475	-0.4628267172621587	0.0	0.9247546853633947	-0.5302994710697878	0.0	0.9415623628637577	-0.58943519218867	0.0
90	3.018867924528301	0.9188403796265181	-0.5670203409247864	0.0	0.9155808679849978	-0.5658805515939515	0.0	0.9274635953253245	-0.6669024701518262	0.0	0.904955148180521	-0.7628780339355845	0.0	0.938618060054103	-0.7823756702654061	0.0	0.9291716778459348	-0.7834654287381887	0.0	0.8961705397888741	-0.7765192407057626	0.0	0.9212664023971447	-0.5643083003207144	0.0	0.926578457099105	-0.6660838238272418	0.0	0.9033702971388197	-0.7609672744311478	0.0	0.9411267279884084	-0.7795745359711891	0.0	0.9334293524211923	-0.7763191822570353	0.0	0.8891291810115979	-0.7724166034015685	0.0	0.9247189516570578	-0.43077957299277764	0.0	0.9343542402847406	-0.37276005427072617	0.0	0.9547736576027865	-0.40290580534744364	0.0	0.9164294926261072	-0.45388345369498295	0.0	0.9241507997616575	-0.5241692686376663	0.0	0.9449349373581029	-0.5812215714985451	0.0	0.9278295494671418	-0.4512939129377639	0.0	0.9271067009984869	-0.5180086721237019	0.0	0.9435631788878905	-0.5773788561421948	0.0
